# xmcd
#
# Track frame offsets: 
#        150
#        13312
#        23701
#        35768
#        51832
#        65222
#        76398
#        88720
#        98898
#        109474
#
# Disc length: 1701 seconds
#
# Revision: 0
# Processed by: cddbd v1.5.2PL0 Copyright (c) Steve Scherf et al.
# Submitted via: ExactAudioCopy v0.99pb3
#
DISCID=8906a30a
DTITLE=Kenny Post - Hey Driver
DYEAR=1998
DGENRE=Country
TTITLE0=Truckin' Fever
TTITLE1=Lonesome Trucker
TTITLE2=Six Days on the Road
TTITLE3=Ruby Don't Take Your Love To Town
TTITLE4=Keeper of My Heart
TTITLE5=I Can't Walk the Line
TTITLE6=Truck Drivin' Man
TTITLE7=Driving Nails in My Coffin
TTITLE8=Roll on Big Mama
TTITLE9=Roses for Mama
EXTD=
EXTT0=
EXTT1=
EXTT2=
EXTT3=
EXTT4=
EXTT5=
EXTT6=
EXTT7=
EXTT8=
EXTT9=
PLAYORDER=
